<?xml version="1.0" encoding="utf-8"?>
<!-- Svg Vector Icons : http://www.onlinewebfonts.com/icon -->
<!DOCTYPE svg PUBLIC "-//W3C//DTD SVG 1.1//EN" "http://www.w3.org/Graphics/SVG/1.1/DTD/svg11.dtd">
<svg version="1.1" xmlns="http://www.w3.org/2000/svg" xmlns:xlink="http://www.w3.org/1999/xlink" x="0px" y="0px" viewBox="0 0 1000 1000" enable-background="new 0 0 1000 1000" xml:space="preserve">
<metadata> Svg Vector Icons : http://www.onlinewebfonts.com/icon </metadata>
<g><path d="M500,122.5l25,30.8c20.7,25.7,53.7,41.1,87.9,41.1c13.5,0,26.6-2.4,38.8-7.1l37-14.2l6.2,39.2c7.4,46.5,46.3,85.5,92.7,92.8l39.1,6.2l-14.2,37c-16.9,43.9-2.5,97.2,34,126.7l30.8,25l-30.8,25c-36.5,29.6-50.8,82.9-34,126.7l14.2,37l-39.2,6.2c-46.4,7.3-85.5,46.4-92.7,92.7l-6.2,39.2l-37-14.2c-12.3-4.7-25.3-7.1-38.8-7.1c-34.2,0-67.2,15.4-87.8,41L500,877.4l-25-30.8c-20.8-25.6-53.7-41-87.9-41c-13.5,0-26.6,2.4-38.8,7.1l-37,14.2l-6.2-39.2c-7.4-46.5-46.4-85.5-92.8-92.8l-39.2-6.2l14.2-37c16.9-43.9,2.5-97.2-34-126.7L122.6,500l30.8-25c36.5-29.6,50.8-82.9,34-126.7l-14.2-37l39.2-6.2c46.4-7.4,85.4-46.4,92.8-92.8l6.2-39.2l37,14.2c12.3,4.7,25.3,7.1,38.8,7.1c34.2,0,67.1-15.4,87.9-41.1L500,122.5 M500,10c-5.6,0-11.2,2.6-15.4,7.8l-70,86.6c-6.2,7.6-17.1,12.2-27.4,12.2c-3.8,0-7.5-0.6-10.9-1.9L272.4,74.7c-2.7-1-5.5-1.5-8-1.5c-9.3,0-17.1,6.5-18.7,17l-17.4,110c-2.2,13.3-14.7,25.9-28.1,28l-110,17.4c-13.3,2.1-20.3,14.1-15.4,26.7l39.9,103.9c4.9,12.5,0.2,29.8-10.3,38.3l-86.6,70c-10.5,8.5-10.5,22.3,0,30.8l86.6,70.1c10.5,8.4,15.1,25.7,10.3,38.3L74.7,727.7c-4.8,12.6,2.1,24.7,15.4,26.8l110,17.4c13.3,2.1,25.9,14.7,28.1,28l17.4,110c1.6,10.5,9.4,17,18.7,17c2.5,0,5.3-0.5,8-1.5l103.9-39.9c3.4-1.3,7.2-1.9,10.9-1.9c10.3,0,21.2,4.5,27.4,12.2l70,86.6c4.2,5.3,9.8,7.8,15.4,7.8c5.6,0,11.2-2.5,15.4-7.8l70-86.6c6.2-7.6,17.1-12.2,27.4-12.2c3.8,0,7.5,0.6,10.9,1.9l103.9,39.9c2.6,1,5.4,1.5,8,1.5c9.3,0,17.1-6.5,18.8-17l17.4-110c2.2-13.3,14.7-25.9,28-28l110-17.4c13.3-2.1,20.2-14.1,15.4-26.8l-39.9-103.8c-4.9-12.6-0.2-29.9,10.3-38.3l86.5-70.1c10.5-8.5,10.5-22.3,0-30.8l-86.5-70c-10.5-8.5-15.2-25.7-10.3-38.3l39.9-103.9c4.8-12.6-2.1-24.6-15.4-26.7l-110-17.4c-13.3-2.1-25.9-14.7-28-28.1l-17.4-110c-1.7-10.5-9.4-17-18.8-17c-2.5,0-5.3,0.5-8,1.5l-103.9,39.9c-3.4,1.3-7.2,1.9-10.9,1.9c-10.3,0-21.2-4.5-27.4-12.2l-70-86.6C511.2,12.6,505.6,10,500,10L500,10L500,10z M657.5,337.4c-12-12-31.4-12-43.3,0L345.5,606.2c-12,12-12,31.4,0,43.3c12,12,31.4,12,43.4,0l268.7-268.7C669.5,368.8,669.5,349.4,657.5,337.4L657.5,337.4z M414.6,484.6c43.1,0,78-35,78-78s-35-78-78-78c-43.1,0-78,35-78,78S371.4,484.6,414.6,484.6L414.6,484.6z M414.6,371.6c19.2,0,34.9,15.6,34.9,34.9s-15.6,34.9-34.9,34.9c-19.3,0-34.9-15.6-34.9-34.9S395.3,371.6,414.6,371.6L414.6,371.6z M588.4,502.4c-43.1,0-78,35-78,78.1c0,43,35,78,78,78c43.1,0,78-35,78-78C666.4,537.4,631.5,502.4,588.4,502.4L588.4,502.4z M588.4,615.3c-19.3,0-34.9-15.6-34.9-34.9s15.6-34.9,34.9-34.9c19.2,0,34.8,15.6,34.8,34.9S607.7,615.3,588.4,615.3L588.4,615.3z"/></g>
</svg>